<svg width="22" height="25" viewBox="0 0 22 25" fill="none" xmlns="http://www.w3.org/2000/svg">
<path d="M1.40001 10.92C2.80001 10.84 3.75001 10.79 4.80001 10.74C4.90001 9.04001 4.92001 7.54001 2.77001 7.15001C2.37001 7.08001 1.72001 6.42001 1.79001 6.18001C1.91001 5.73001 2.41001 5.11001 2.82001 5.05001C4.94001 4.78001 5.78001 3.31001 6.52001 1.58001C7.15001 0.110008 8.28001 -0.379993 9.89001 0.310007C10.43 0.540007 11.24 0.510008 11.8 0.280007C13.34 -0.359993 14.46 0.110008 15.05 1.51001C15.81 3.32001 16.75 4.76001 18.88 5.08001C19.27 5.14001 19.91 5.84001 19.84 6.05001C19.69 6.51001 19.2 7.10001 18.78 7.17001C16.63 7.53001 16.79 9.08001 16.77 10.69C17.84 10.77 18.85 10.85 20.16 10.95C19.61 12.41 19.19 13.7 18.64 14.92C18.21 15.87 18.45 16.43 19.04 17.3C20.09 18.86 20.87 20.66 21.48 22.45C21.94 23.79 21.19 24.63 19.69 24.63C13.74 24.63 7.80001 24.63 1.85001 24.63C0.440006 24.63 -0.299994 23.8 0.130006 22.54C0.770006 20.7 1.58001 18.87 2.63001 17.24C3.16001 16.42 3.41001 15.89 3.01001 15C2.45001 13.77 2.01001 12.49 1.40001 10.92ZM15.96 8.29001H5.57001C6.37001 9.30001 6.83001 10.43 7.42001 10.5C8.55001 10.63 9.75001 10.17 11.28 9.89001C12.11 10.72 13.11 11.18 14.1 10.57C14.79 10.15 15.19 9.27001 15.96 8.29001ZM8.30001 22.53C8.41001 22.55 8.53001 22.57 8.64001 22.59C9.08001 20.74 9.64001 18.91 9.90001 17.03C9.98001 16.47 9.37001 15.65 8.85001 15.22C8.18001 14.66 7.27001 14.38 6.14001 13.82C6.92001 16.96 7.61001 19.75 8.30001 22.54V22.53ZM15.46 13.88C13.7 14.71 11.66 15.01 11.71 17.04C11.76 18.9 12.51 20.74 12.96 22.59C13.07 22.57 13.19 22.55 13.3 22.53C13.99 19.78 14.67 17.02 15.46 13.88Z" fill="white"/>
</svg>
