<svg width="30" height="30" viewBox="0 0 30 30" fill="none" xmlns="http://www.w3.org/2000/svg">
<path d="M12.58 26.09H12.26C9.35 26.09 6.44 26.09 3.53 26.09C1.49 26.08 0 24.6 0 22.57C0 16.22 0 9.87 0 3.53C0 1.49 1.48 0 3.52 0C8.21 0 12.89 0 17.58 0C19.64 0 21.12 1.48 21.12 3.55C21.12 7.42 21.12 11.29 21.12 15.16C21.12 15.31 21.04 15.5 20.93 15.61C18.69 17.87 16.45 20.13 14.17 22.35C13.37 23.13 12.88 24.03 12.76 25.13C12.73 25.44 12.65 25.74 12.59 26.08L12.58 26.09ZM10.57 9.94C9.58 9.94 8.59 9.94 7.6 9.94C6.71 9.94 5.82 9.93 4.92 9.94C4.06 9.96 3.5 10.82 3.81 11.61C4.01 12.12 4.45 12.4 5.07 12.4C8.73 12.4 12.38 12.4 16.04 12.4C16.11 12.4 16.18 12.4 16.24 12.4C16.78 12.36 17.23 11.97 17.35 11.44C17.52 10.63 16.95 9.94 16.09 9.94C14.25 9.94 12.4 9.94 10.56 9.94H10.57ZM8.07 17.39C9.04 17.39 10.01 17.39 10.98 17.39C11.12 17.39 11.25 17.39 11.38 17.36C12.04 17.25 12.46 16.7 12.41 16.03C12.37 15.42 11.84 14.91 11.21 14.91C9.12 14.91 7.02 14.91 4.93 14.91C4.4 14.91 3.94 15.28 3.79 15.79C3.54 16.61 4.14 17.38 5.05 17.39C6.06 17.39 7.07 17.39 8.07 17.39ZM7.44 7.45C8.25 7.45 9.05 7.45 9.86 7.45C10.62 7.45 11.17 6.93 11.18 6.23C11.19 5.52 10.64 4.97 9.87 4.97C8.26 4.97 6.65 4.97 5.04 4.97C4.27 4.97 3.72 5.52 3.73 6.23C3.74 6.93 4.3 7.45 5.05 7.45C5.85 7.45 6.64 7.45 7.44 7.45Z" fill="white"/>
<path d="M29.81 18.1201C29.79 18.7401 29.57 19.2601 29.14 19.6901C28.52 20.3101 27.89 20.9401 27.27 21.5601C24.92 23.9101 22.57 26.2401 20.24 28.6001C19.89 28.9501 19.51 29.1401 19.03 29.2201C17.95 29.3901 16.87 29.5901 15.79 29.7801C15.06 29.9101 14.53 29.3901 14.65 28.6601C14.85 27.4901 15.06 26.3101 15.26 25.1401C15.31 24.8301 15.45 24.5801 15.67 24.3601C18.67 21.3701 21.66 18.3701 24.67 15.3801C24.92 15.1301 25.21 14.9001 25.52 14.7301C26.24 14.3401 26.99 14.4401 27.58 15.0001C28.14 15.5301 28.69 16.0901 29.22 16.6501C29.61 17.0601 29.79 17.5601 29.8 18.1201H29.81Z" fill="white"/>
</svg>
