<svg width="27" height="26" viewBox="0 0 27 26" fill="none" xmlns="http://www.w3.org/2000/svg">
<path d="M18.72 16.9999C17.41 17.0099 16.31 16.8399 15.26 16.4099C15.08 16.3399 14.98 16.3699 14.85 16.5099C14.36 17.0699 13.85 17.6199 13.35 18.1899C13.15 18.4199 12.91 18.5499 12.61 18.5699C12.24 18.5999 11.87 18.6499 11.51 18.6799C10.83 18.7399 10.4 19.2299 10.42 19.9199C10.43 20.1899 10.47 20.4599 10.44 20.7199C10.32 21.6599 9.50001 22.2799 8.56001 22.1899C8.34001 22.1699 8.11001 22.1399 7.88001 22.1699C7.40001 22.2199 7.02001 22.5899 6.95001 23.0599C6.89001 23.4499 6.84001 23.8399 6.80001 24.2399C6.77001 24.5799 6.64001 24.8399 6.38001 25.0699C5.97001 25.4399 5.56001 25.8099 4.97001 25.8399C4.51001 25.8599 4.05001 25.8199 3.58001 25.7999C3.11001 25.7799 2.64001 25.7599 2.17001 25.7199C1.59001 25.6799 1.16001 25.2599 1.13001 24.6799C1.08001 23.8699 1.03001 23.0699 0.990013 22.2599C0.960013 21.6799 1.15001 21.1799 1.54001 20.7399C4.27001 17.6799 7.16001 14.7799 10.24 12.0699C10.44 11.8999 10.49 11.7699 10.39 11.4999C8.51001 6.56991 11.62 1.05991 16.81 0.139911C21.51 -0.700089 25.91 2.37991 26.73 7.08991C27.53 11.6399 24.38 16.0999 19.84 16.8599C19.41 16.9299 18.97 16.9699 18.72 16.9999ZM20.53 8.69991C21.83 8.66991 22.87 7.59991 22.85 6.32991C22.82 5.02991 21.76 3.98991 20.48 4.00991C19.17 4.02991 18.13 5.09991 18.16 6.39991C18.19 7.69991 19.25 8.72991 20.54 8.70991L20.53 8.69991Z" fill="white"/>
</svg>
