<svg width="25" height="25" viewBox="0 0 25 25" fill="none" xmlns="http://www.w3.org/2000/svg">
<path d="M12.26 24.5801C9.46002 24.5801 6.65002 24.6001 3.85002 24.5801C1.23002 24.5501 0.0300219 23.3701 2.19189e-05 20.8301C-0.0299781 18.1701 1.12002 17.0001 3.84002 16.9301C4.64002 16.9101 5.45002 17.0001 6.24002 16.9101C7.49002 16.7701 8.38002 17.2401 9.24002 18.1401C11.63 20.6101 12.96 20.5801 15.44 18.1901C16.86 16.8201 21.69 16.3901 23.28 17.4901C24.53 18.3601 25.05 20.3101 24.52 22.1701C24.07 23.7701 22.93 24.5301 21.35 24.5501C18.32 24.6001 15.29 24.5601 12.25 24.5601L12.26 24.5801ZM20.77 19.2401C20.31 19.9201 19.77 20.3601 19.82 20.7301C19.87 21.1401 20.46 21.4801 20.81 21.8501C21.19 21.4501 21.78 21.0901 21.88 20.6301C21.95 20.3301 21.3 19.8701 20.77 19.2401Z" fill="white"/>
<path d="M14.32 12.9399C15.25 11.9399 16.16 10.9399 17.1 9.95992C17.8 9.23992 18.64 8.78992 19.48 9.61992C20.37 10.4899 19.98 11.3799 19.21 12.1499C17.4 13.9699 15.57 15.7799 13.76 17.6099C12.74 18.6499 11.8 18.5499 10.82 17.5499C9.06002 15.7599 7.27002 13.9899 5.49002 12.2199C4.73002 11.4599 4.26002 10.5799 5.11002 9.67992C6.00002 8.73992 6.88002 9.25992 7.62002 10.0299C8.52002 10.9799 9.40002 11.9399 10.59 13.2199C10.71 12.3599 10.82 11.9699 10.82 11.5699C10.83 8.71992 10.79 5.85992 10.85 3.00992C10.89 1.77992 10.38 -0.0200789 12.38 -7.89069e-05C14.24 0.0199211 13.8 1.73992 13.81 2.91992C13.85 6.15992 13.83 9.39992 13.83 12.6399C13.99 12.7399 14.16 12.8399 14.32 12.9399Z" fill="white"/>
</svg>
