<svg width="31" height="22" viewBox="0 0 31 22" fill="none" xmlns="http://www.w3.org/2000/svg">
<path d="M6.18105 4.85C7.49105 6.17 9.03105 6.6 10.911 6.56C15.141 6.47 19.381 6.52 23.611 6.68C26.211 6.78 28.451 7.88 30.241 9.85C31.051 10.75 31.051 11.48 30.241 12.37C28.451 14.34 26.211 15.44 23.611 15.54C19.381 15.7 15.141 15.75 10.911 15.66C9.03105 15.62 7.49105 16.04 6.18105 17.37L6.24105 17.31H4.62105V21.71C2.52105 21.78 1.81105 21.19 1.71105 19.35C1.65105 18.28 1.79105 17.24 0.641047 16.5C0.251047 16.25 0.141047 15.38 0.131047 14.79C0.0810467 12.34 -0.168953 9.84 0.191047 7.44C0.511047 5.33 1.86105 3.46 2.26105 1.27C2.35105 0.8 3.57105 0.54 4.61105 0V4.91H6.23105L6.17105 4.85H6.18105ZM22.991 13.44C24.891 13.15 24.891 11.95 24.851 10.71C24.821 9.6 24.301 8.96 22.991 8.78V13.44Z" fill="white"/>
<path d="M6.24103 4.91007V0.42007C10.511 0.22007 13.281 2.88007 16.391 4.85007C12.991 4.85007 9.59103 4.85007 6.18103 4.85007L6.24103 4.91007Z" fill="white"/>
<path d="M6.18103 17.3601H16.391C13.281 19.3301 10.521 21.9901 6.24103 21.7901C6.24103 20.2401 6.24103 18.77 6.24103 17.3L6.18103 17.3601Z" fill="white"/>
</svg>
