<?xml version="1.0" encoding="UTF-8" standalone="no"?>
<svg
   xmlns:dc="http://purl.org/dc/elements/1.1/"
   xmlns:cc="http://creativecommons.org/ns#"
   xmlns:rdf="http://www.w3.org/1999/02/22-rdf-syntax-ns#"
   xmlns:svg="http://www.w3.org/2000/svg"
   xmlns="http://www.w3.org/2000/svg"
   xmlns:sodipodi="http://sodipodi.sourceforge.net/DTD/sodipodi-0.dtd"
   xmlns:inkscape="http://www.inkscape.org/namespaces/inkscape"
   version="1.1"
   id="Layer_1"
   x="0px"
   y="0px"
   viewBox="0 0 500 500"
   style="enable-background:new 0 0 500 500;"
   xml:space="preserve"
   sodipodi:docname="logo.svg"
   inkscape:version="1.0.2 (e86c870879, 2021-01-15)"><metadata
   id="metadata145"><rdf:RDF><cc:Work
       rdf:about=""><dc:format>image/svg+xml</dc:format><dc:type
         rdf:resource="http://purl.org/dc/dcmitype/StillImage" /></cc:Work></rdf:RDF></metadata><defs
   id="defs143"><linearGradient
     x1="36.563415"
     y1="-192.86436"
     x2="390"
     y2="780"
     id="linearGradient-1"
     gradientUnits="userSpaceOnUse"><stop
       stop-color="#6FA4FC"
       offset="0%"
       id="stop6" /><stop
       stop-color="#4083FD"
       offset="100%"
       id="stop8" /></linearGradient><linearGradient
     x1="370.33801"
     y1="22.608858"
     x2="208.571"
     y2="61.982149"
     id="linearGradient-2"
     gradientTransform="scale(0.54846525,1.8232696)"
     gradientUnits="userSpaceOnUse"><stop
       stop-color="#87B3FF"
       offset="0%"
       id="stop11" /><stop
       stop-color="#87B2FF"
       stop-opacity="0"
       offset="100%"
       id="stop13" /></linearGradient><linearGradient
     x1="347.95078"
     y1="50.616064"
     x2="196.79579"
     y2="65.23453"
     id="linearGradient-3"
     gradientTransform="scale(0.55047503,1.8166128)"
     gradientUnits="userSpaceOnUse"><stop
       stop-color="#005DFF"
       offset="0%"
       id="stop16" /><stop
       stop-color="#87B2FF"
       stop-opacity="0"
       offset="100%"
       id="stop18" /></linearGradient><filter
     x="-1.609"
     y="-0.98500001"
     width="4.2189999"
     height="2.97"
     filterUnits="objectBoundingBox"
     id="filter-5"><feGaussianBlur
       stdDeviation="50"
       in="SourceGraphic"
       id="feGaussianBlur22" /></filter><mask
     id="mask-6"
     fill="#ffffff"><polygon
       id="use44"
       points="91.418256,5.8287742 53.401756,0.039562465 0.38529891,30.845104 36.975577,152.34538 66.275415,121.91603 69.995953,92.189752 93.58704,47.74429 " /></mask><filter
     x="-0.25299999"
     y="-0.55199999"
     width="1.4089999"
     height="1.7360001"
     filterUnits="objectBoundingBox"
     id="filter-8"><feMorphology
       radius="2"
       operator="erode"
       in="SourceAlpha"
       result="shadowSpreadOuter1"
       id="feMorphology26" /><feOffset
       dx="-7"
       dy="-38"
       in="shadowSpreadOuter1"
       result="shadowOffsetOuter1"
       id="feOffset28" /><feGaussianBlur
       stdDeviation="5.5"
       in="shadowOffsetOuter1"
       result="shadowBlurOuter1"
       id="feGaussianBlur30" /><feColorMatrix
       values="0 0 0 0 0.405855429   0 0 0 0 0.554593387   0 0 0 0 1  0 0 0 0.5 0"
       type="matrix"
       in="shadowBlurOuter1"
       id="feColorMatrix32" /></filter><linearGradient
     x1="36.563415"
     y1="-192.86436"
     x2="390"
     y2="780"
     id="linearGradient-1-3"
     gradientUnits="userSpaceOnUse"><stop
       stop-color="#6FA4FC"
       offset="0%"
       id="stop6-6" /><stop
       stop-color="#4083FD"
       offset="100%"
       id="stop8-7" /></linearGradient><filter
     x="-1.609"
     y="-0.98500001"
     width="4.2189999"
     height="2.97"
     filterUnits="objectBoundingBox"
     id="filter-5-2"><feGaussianBlur
       stdDeviation="50"
       in="SourceGraphic"
       id="feGaussianBlur22-9" /></filter><mask
     id="mask-6-1"
     fill="#ffffff"><polygon
       id="use44-2"
       points="91.418256,5.8287742 53.401756,0.039562465 0.38529891,30.845104 36.975577,152.34538 66.275415,121.91603 69.995953,92.189752 93.58704,47.74429 " /></mask><filter
     x="-0.25299999"
     y="-0.55199999"
     width="1.4089999"
     height="1.7360001"
     filterUnits="objectBoundingBox"
     id="filter-8-7"><feMorphology
       radius="2"
       operator="erode"
       in="SourceAlpha"
       result="shadowSpreadOuter1"
       id="feMorphology26-0" /><feOffset
       dx="-7"
       dy="-38"
       in="shadowSpreadOuter1"
       result="shadowOffsetOuter1"
       id="feOffset28-9" /><feGaussianBlur
       stdDeviation="5.5"
       in="shadowOffsetOuter1"
       result="shadowBlurOuter1"
       id="feGaussianBlur30-3" /><feColorMatrix
       values="0 0 0 0 0.405855429   0 0 0 0 0.554593387   0 0 0 0 1  0 0 0 0.5 0"
       type="matrix"
       in="shadowBlurOuter1"
       id="feColorMatrix32-6" /></filter></defs><sodipodi:namedview
   pagecolor="#ffffff"
   bordercolor="#666666"
   borderopacity="1"
   objecttolerance="10"
   gridtolerance="10"
   guidetolerance="10"
   inkscape:pageopacity="0"
   inkscape:pageshadow="2"
   inkscape:window-width="1888"
   inkscape:window-height="1286"
   id="namedview141"
   showgrid="false"
   inkscape:zoom="1.47"
   inkscape:cx="250"
   inkscape:cy="250"
   inkscape:window-x="0"
   inkscape:window-y="27"
   inkscape:window-maximized="0"
   inkscape:current-layer="Layer_1" />

<g
   id="DESIGN"
   stroke="none"
   stroke-width="1"
   fill="none"
   fill-rule="evenodd"
   transform="matrix(0.64108631,0,0,0.64108631,0.02510556,0.28313874)"><g
     id="Artboard"
     transform="translate(-360,-360)"><g
       id="Group"
       transform="translate(360,360)"><path
         d="m 235.87744,0 h 308.24512 c 82.01973,0 111.76206,8.5399562 141.74725,24.576209 29.98518,16.036252 53.51773,39.568801 69.55398,69.553986 C 771.46004,124.11538 780,153.85771 780,235.87744 v 308.24512 c 0,82.01973 -8.53996,111.76206 -24.57621,141.74725 -16.03625,29.98518 -39.5688,53.51773 -69.55398,69.55398 C 655.88462,771.46004 626.14229,780 544.12256,780 H 235.87744 C 153.85771,780 124.11538,771.46004 94.130195,755.42379 64.14501,739.38754 40.612461,715.85499 24.576209,685.86981 8.5399562,655.88462 0,626.14229 0,544.12256 V 235.87744 C 0,153.85771 8.5399562,124.11538 24.576209,94.130195 40.612461,64.14501 64.14501,40.612461 94.130195,24.576209 124.11538,8.5399562 153.85771,0 235.87744,0 Z"
         id="Rectangle-10"
         fill="url(#linearGradient-1)"
         style="fill:url(#linearGradient-1-3)" /><g
         id="Group-3"
         transform="translate(158,198)"><g
           id="Group-2"><path
             d="M 78.415825,412.9048 54.205289,376.01208 H 39.904765 v 36.89272 h -8.906467 v -88.46725 h 27.09573 c 9.951876,0 17.373858,2.34237 22.266167,7.02719 4.892309,4.68481 7.338427,11.00085 7.338427,18.9483 0,7.36185 -2.069792,13.21778 -6.209439,17.56797 -4.139646,4.35018 -10.139952,6.94352 -18.001098,7.7801 l 24.963196,37.14369 z m -38.51106,-43.54345 h 17.562047 c 14.216966,0 21.325343,-6.14873 21.325343,-18.44637 0,-12.5486 -7.108377,-18.82281 -21.325343,-18.82281 H 39.904765 Z m 92.326195,37.14369 c 6.18856,0 11.37349,-1.54763 15.55495,-4.64296 4.18146,-3.09532 6.6903,-7.27813 7.52659,-12.54854 h 9.2828 c -1.25444,7.27819 -4.725,13.17595 -10.41179,17.69345 -5.68678,4.5175 -12.87879,6.77621 -21.57623,6.77621 -6.52307,0 -12.31431,-1.40124 -17.37388,-4.20376 -5.05957,-2.80252 -9.01099,-6.85985 -11.85438,-12.17209 -2.84339,-5.31225 -4.265068,-11.56554 -4.265068,-18.76008 0,-7.19453 1.421678,-13.44783 4.265068,-18.76007 2.84339,-5.31225 6.79481,-9.36957 11.85438,-12.17209 5.05957,-2.80253 10.85081,-4.20377 17.37388,-4.20377 6.69034,0 12.48158,1.40124 17.37389,4.20377 4.89231,2.80252 8.61375,6.54613 11.16444,11.23094 2.55069,4.68482 3.82602,9.78784 3.82602,15.30923 0,2.34241 -0.16726,4.47564 -0.50177,6.39976 h -56.70033 c 0.0836,5.77236 1.27533,10.6035 3.57513,14.49357 2.29981,3.89007 5.28951,6.75529 8.96919,8.59576 3.67969,1.84046 7.65202,2.76067 11.91711,2.76067 z m 0.37632,-55.84103 c -4.43234,0 -8.4883,0.92022 -12.16798,2.76068 -3.67969,1.84047 -6.66939,4.66386 -8.96919,8.47027 -2.29981,3.80641 -3.53332,8.5539 -3.70058,14.2426 h 48.42108 c 0.33451,-5.60504 -0.5854,-10.33161 -2.75976,-14.17985 -2.17435,-3.84824 -5.10133,-6.69255 -8.78102,-8.53302 -3.67968,-1.84046 -7.69383,-2.76068 -12.04255,-2.76068 z m 77.02213,-7.15267 c 6.94122,0 12.8579,1.79861 17.75021,5.39588 4.89231,3.59726 8.25833,8.36566 10.09817,14.30534 v -18.82282 h 8.65559 v 68.51506 h -8.65559 v -18.82282 c -1.83984,5.93968 -5.20586,10.70808 -10.09817,14.30535 -4.89231,3.59727 -10.80899,5.39587 -17.75021,5.39587 -6.18857,0 -11.72892,-1.42215 -16.62123,-4.2665 -4.89231,-2.84436 -8.69738,-6.92259 -11.41533,-12.23484 -2.71795,-5.31224 -4.0769,-11.52371 -4.0769,-18.63459 0,-7.19453 1.35895,-13.44783 4.0769,-18.76007 2.71795,-5.31225 6.50212,-9.36957 11.35261,-12.17209 4.8505,-2.80253 10.41175,-4.20377 16.68395,-4.20377 z m 2.25797,7.7801 c -7.69388,0 -13.86145,2.44694 -18.50287,7.3409 -4.64142,4.89396 -6.9621,11.56554 -6.9621,20.01493 0,8.4494 2.32068,15.12098 6.9621,20.01493 4.64142,4.89396 10.80899,7.3409 18.50287,7.3409 4.8505,0 9.22006,-1.12936 13.10882,-3.3881 3.88876,-2.25875 6.94118,-5.4586 9.15735,-9.59964 2.21617,-4.14104 3.32424,-8.93036 3.32424,-14.36809 0,-5.43773 -1.10807,-10.22704 -3.32424,-14.36808 -2.21617,-4.14104 -5.26859,-7.34089 -9.15735,-9.59964 -3.88876,-2.25875 -8.25832,-3.38811 -13.10882,-3.38811 z m 82.1653,-7.7801 c 6.94122,0 12.8579,1.79861 17.75021,5.39588 4.89231,3.59726 8.21652,8.36566 9.97273,14.30534 v -43.167 h 8.78102 v 92.85924 h -8.78102 v -18.82282 c -1.75621,5.93968 -5.08042,10.70808 -9.97273,14.30535 -4.89231,3.59727 -10.80899,5.39587 -17.75021,5.39587 -6.18857,0 -11.72892,-1.42215 -16.62123,-4.2665 -4.89231,-2.84436 -8.69738,-6.92259 -11.41533,-12.23484 -2.71795,-5.31224 -4.0769,-11.52371 -4.0769,-18.63459 0,-7.19453 1.35895,-13.44783 4.0769,-18.76007 2.71795,-5.31225 6.50212,-9.36957 11.35261,-12.17209 4.8505,-2.80253 10.41175,-4.20377 16.68395,-4.20377 z m 2.25797,7.7801 c -7.69388,0 -13.86145,2.44694 -18.50287,7.3409 -4.64142,4.89396 -6.9621,11.56554 -6.9621,20.01493 0,8.4494 2.32068,15.12098 6.9621,20.01493 4.64142,4.89396 10.80899,7.3409 18.50287,7.3409 4.8505,0 9.22006,-1.12936 13.10882,-3.3881 3.88876,-2.25875 6.94118,-5.4586 9.15735,-9.59964 2.21618,-4.14104 3.32425,-8.93036 3.32425,-14.36809 0,-5.43773 -1.10807,-10.22704 -3.32425,-14.36808 -2.21617,-4.14104 -5.26859,-7.34089 -9.15735,-9.59964 -3.88876,-2.25875 -8.25832,-3.38811 -13.10882,-3.38811 z m 83.16884,55.2136 c 6.18856,0 11.3735,-1.54763 15.55496,-4.64296 4.18146,-3.09532 6.6903,-7.27813 7.52659,-12.54854 h 9.2828 c -1.25444,7.27819 -4.725,13.17595 -10.41179,17.69345 -5.68679,4.5175 -12.87879,6.77621 -21.57623,6.77621 -6.52308,0 -12.31431,-1.40124 -17.37388,-4.20376 -5.05957,-2.80252 -9.01099,-6.85985 -11.85438,-12.17209 -2.8434,-5.31225 -4.26507,-11.56554 -4.26507,-18.76008 0,-7.19453 1.42167,-13.44783 4.26507,-18.76007 2.84339,-5.31225 6.79481,-9.36957 11.85438,-12.17209 5.05957,-2.80253 10.8508,-4.20377 17.37388,-4.20377 6.69034,0 12.48157,1.40124 17.37388,4.20377 4.89231,2.80252 8.61376,6.54613 11.16445,11.23094 2.55069,4.68482 3.82601,9.78784 3.82601,15.30923 0,2.34241 -0.16725,4.47564 -0.50177,6.39976 h -56.70032 c 0.0836,5.77236 1.27533,10.6035 3.57513,14.49357 2.2998,3.89007 5.2895,6.75529 8.96919,8.59576 3.67968,1.84046 7.65201,2.76067 11.9171,2.76067 z m 0.37633,-55.84103 c -4.43235,0 -8.4883,0.92022 -12.16799,2.76068 -3.67968,1.84047 -6.66938,4.66386 -8.96919,8.47027 -2.2998,3.80641 -3.53331,8.5539 -3.70057,14.2426 h 48.42107 c 0.33452,-5.60504 -0.58539,-10.33161 -2.75975,-14.17985 -2.17436,-3.84824 -5.10134,-6.69255 -8.78102,-8.53302 -3.67969,-1.84046 -7.69383,-2.76068 -12.04255,-2.76068 z m 57.07665,7.90559 c 2.0071,-4.93579 5.22678,-8.74214 9.65913,-11.41918 4.43235,-2.67704 9.82635,-4.01553 16.18217,-4.01553 v 9.53689 h -2.88519 c -6.60671,0 -12.08434,1.77769 -16.43306,5.33313 -4.34872,3.55544 -6.52305,9.34863 -6.52305,17.37974 v 37.52015 h -8.90646 v -68.51506 h 8.90646 z"
             id="Reader"
             fill="#ffffff" /><g
             id="Group-Copy"><path
               d="M 220.28046,12.157524 V 78.165201 H 150.99491 V 277.68841 H 69.178991 V 78.165201 H 0.63051844 V 12.157524 Z m 167.68578,52.506107 c 23.83239,0 42.44348,8.125864 55.83384,24.377835 13.39036,16.251974 20.08544,38.254314 20.08544,66.007674 V 277.68841 H 382.43814 V 165.55036 c 0,-10.00121 -2.64118,-17.93955 -7.92361,-23.81527 -5.28244,-5.87571 -12.34606,-8.81352 -21.19106,-8.81352 -9.09071,0 -16.21575,2.93781 -21.37533,8.81352 -5.15959,5.87572 -7.73935,13.81406 -7.73935,23.81527 V 277.68841 H 242.39287 V 0.156128 h 81.81592 v 98.261429 c 6.38806,-10.001214 14.92583,-18.127077 25.61354,-24.377836 10.68772,-6.250758 23.40223,-9.37609 38.14391,-9.37609 z"
               id="Th"
               fill="#ffffff" /><rect
               id="Rectangle"
               fill="url(#linearGradient-2)"
               opacity="0.713193"
               x="54.629665"
               y="78.263039"
               width="96.140915"
               height="319.60239"
               style="fill:url(#linearGradient-2)" /><rect
               id="rect41"
               fill="url(#linearGradient-3)"
               opacity="0.480515"
               x="38.606178"
               y="78.263039"
               width="112.1644"
               height="370.15173"
               style="fill:url(#linearGradient-3)" /></g><g
             id="Oval"
             opacity="0.829985"
             transform="translate(252.4504,34.725366)"><mask
               id="mask925"
               fill="#ffffff"><polygon
                 id="use923"
                 points="91.418256,5.8287742 53.401756,0.039562465 0.38529891,30.845104 36.975577,152.34538 66.275415,121.91603 69.995953,92.189752 93.58704,47.74429 " /></mask><g
               id="Mask"
               filter="url(#filter-5)"
               style="filter:url(#filter-5-2)" /><g
               mask="url(#mask-6-1)"
               id="g52"><path
                 d="m 100.62658,86.912283 c 39.82287,0 39.59039,10.972009 106.94687,6.522497 0,-35.122191 -32.28281,-63.594353 -72.10568,-63.594353 -39.822872,0 -72.105688,28.472162 -72.105688,63.594353 0.83242,135.9262 -2.558376,-6.522497 37.264498,-6.522497 z"
                 id="use48"
                 style="fill:#000000;fill-opacity:1;filter:url(#filter-8-7)" /><path
                 d="m 100.62658,86.912283 c 39.82287,0 39.59039,10.972009 106.94687,6.522497 0,-35.122191 -32.28281,-63.594353 -72.10568,-63.594353 -39.822872,0 -72.105688,28.472162 -72.105688,63.594353 0.83242,135.9262 -2.558376,-6.522497 37.264498,-6.522497 z"
                 id="use50"
                 style="fill:#ffffff;fill-rule:evenodd" /></g></g></g></g></g></g></g></svg>
